<svg width="65" height="18" viewBox="0 0 65 18" fill="none" xmlns="http://www.w3.org/2000/svg">
<path id="Menu" d="M18.368 0.319999V17H15.632V5.576L10.544 17H8.648L3.536 5.576V17H0.8V0.319999H3.752L9.608 13.4L15.44 0.319999H18.368ZM34.0841 10.064C34.0841 10.56 34.0521 11.008 33.9881 11.408H23.8841C23.9641 12.464 24.3561 13.312 25.0601 13.952C25.7641 14.592 26.6281 14.912 27.6521 14.912C29.1241 14.912 30.1641 14.296 30.7721 13.064H33.7241C33.3241 14.28 32.5961 15.28 31.5401 16.064C30.5001 16.832 29.2041 17.216 27.6521 17.216C26.3881 17.216 25.2521 16.936 24.2441 16.376C23.2521 15.8 22.4681 15 21.8921 13.976C21.3321 12.936 21.0521 11.736 21.0521 10.376C21.0521 9.016 21.3241 7.824 21.8681 6.8C22.4281 5.76 23.2041 4.96 24.1961 4.4C25.2041 3.84 26.3561 3.56 27.6521 3.56C28.9001 3.56 30.0121 3.832 30.9881 4.376C31.9641 4.92 32.7241 5.688 33.2681 6.68C33.8121 7.656 34.0841 8.784 34.0841 10.064ZM31.2281 9.2C31.2121 8.192 30.8521 7.384 30.1481 6.776C29.4441 6.168 28.5721 5.864 27.5321 5.864C26.5881 5.864 25.7801 6.168 25.1081 6.776C24.4361 7.368 24.0361 8.176 23.9081 9.2H31.2281ZM43.4486 3.56C44.4886 3.56 45.4166 3.776 46.2326 4.208C47.0646 4.64 47.7126 5.28 48.1766 6.128C48.6406 6.976 48.8726 8 48.8726 9.2V17H46.1606V9.608C46.1606 8.424 45.8646 7.52 45.2726 6.896C44.6806 6.256 43.8726 5.936 42.8486 5.936C41.8246 5.936 41.0086 6.256 40.4006 6.896C39.8086 7.52 39.5126 8.424 39.5126 9.608V17H36.7766V3.776H39.5126V5.288C39.9606 4.744 40.5286 4.32 41.2166 4.016C41.9206 3.712 42.6646 3.56 43.4486 3.56ZM64.3385 3.776V17H61.6025V15.44C61.1705 15.984 60.6025 16.416 59.8985 16.736C59.2105 17.04 58.4745 17.192 57.6905 17.192C56.6505 17.192 55.7145 16.976 54.8825 16.544C54.0665 16.112 53.4185 15.472 52.9385 14.624C52.4745 13.776 52.2425 12.752 52.2425 11.552V3.776H54.9545V11.144C54.9545 12.328 55.2505 13.24 55.8425 13.88C56.4345 14.504 57.2425 14.816 58.2665 14.816C59.2905 14.816 60.0985 14.504 60.6905 13.88C61.2985 13.24 61.6025 12.328 61.6025 11.144V3.776H64.3385Z" fill="black"/>
</svg>
