<svg width="71" height="363" viewBox="0 0 71 363" fill="none" xmlns="http://www.w3.org/2000/svg">
<g id="Nav bar">
<path id="01" d="M1.44 17.024C1.44 14.256 1.904 12.096 2.832 10.544C3.776 8.976 5.392 8.192 7.68 8.192C9.968 8.192 11.576 8.976 12.504 10.544C13.448 12.096 13.92 14.256 13.92 17.024C13.92 19.824 13.448 22.016 12.504 23.6C11.576 25.168 9.968 25.952 7.68 25.952C5.392 25.952 3.776 25.168 2.832 23.6C1.904 22.016 1.44 19.824 1.44 17.024ZM11.232 17.024C11.232 15.728 11.144 14.632 10.968 13.736C10.808 12.84 10.472 12.112 9.96 11.552C9.448 10.976 8.688 10.688 7.68 10.688C6.672 10.688 5.912 10.976 5.4 11.552C4.888 12.112 4.544 12.84 4.368 13.736C4.208 14.632 4.128 15.728 4.128 17.024C4.128 18.368 4.208 19.496 4.368 20.408C4.528 21.32 4.864 22.056 5.376 22.616C5.904 23.176 6.672 23.456 7.68 23.456C8.688 23.456 9.448 23.176 9.96 22.616C10.488 22.056 10.832 21.32 10.992 20.408C11.152 19.496 11.232 18.368 11.232 17.024ZM16.455 11V8.504H21.447V26H18.687V11H16.455Z" fill="black"/>
<circle id="Ellipse 1" cx="53.5" cy="17.5" r="13.5" fill="white"/>
<path id="02" d="M1.44 180.024C1.44 177.256 1.904 175.096 2.832 173.544C3.776 171.976 5.392 171.192 7.68 171.192C9.968 171.192 11.576 171.976 12.504 173.544C13.448 175.096 13.92 177.256 13.92 180.024C13.92 182.824 13.448 185.016 12.504 186.6C11.576 188.168 9.968 188.952 7.68 188.952C5.392 188.952 3.776 188.168 2.832 186.6C1.904 185.016 1.44 182.824 1.44 180.024ZM11.232 180.024C11.232 178.728 11.144 177.632 10.968 176.736C10.808 175.84 10.472 175.112 9.96 174.552C9.448 173.976 8.688 173.688 7.68 173.688C6.672 173.688 5.912 173.976 5.4 174.552C4.888 175.112 4.544 175.84 4.368 176.736C4.208 177.632 4.128 178.728 4.128 180.024C4.128 181.368 4.208 182.496 4.368 183.408C4.528 184.32 4.864 185.056 5.376 185.616C5.904 186.176 6.672 186.456 7.68 186.456C8.688 186.456 9.448 186.176 9.96 185.616C10.488 185.056 10.832 184.32 10.992 183.408C11.152 182.496 11.232 181.368 11.232 180.024ZM18.327 185.28C19.863 183.952 21.071 182.864 21.951 182.016C22.847 181.152 23.591 180.256 24.183 179.328C24.775 178.4 25.071 177.472 25.071 176.544C25.071 175.584 24.839 174.832 24.375 174.288C23.927 173.744 23.215 173.472 22.239 173.472C21.295 173.472 20.559 173.776 20.031 174.384C19.519 174.976 19.247 175.776 19.215 176.784H16.575C16.623 174.96 17.167 173.568 18.207 172.608C19.263 171.632 20.599 171.144 22.215 171.144C23.959 171.144 25.319 171.624 26.295 172.584C27.287 173.544 27.783 174.824 27.783 176.424C27.783 177.576 27.487 178.688 26.895 179.76C26.319 180.816 25.623 181.768 24.807 182.616C24.007 183.448 22.983 184.416 21.735 185.52L20.655 186.48H28.263V188.76H16.599V186.768L18.327 185.28Z" fill="black"/>
<circle id="Ellipse 2" cx="53.5" cy="180.5" r="13.5" fill="white" fill-opacity="0.5"/>
<path id="03" d="M1.44 341.024C1.44 338.256 1.904 336.096 2.832 334.544C3.776 332.976 5.392 332.192 7.68 332.192C9.968 332.192 11.576 332.976 12.504 334.544C13.448 336.096 13.92 338.256 13.92 341.024C13.92 343.824 13.448 346.016 12.504 347.6C11.576 349.168 9.968 349.952 7.68 349.952C5.392 349.952 3.776 349.168 2.832 347.6C1.904 346.016 1.44 343.824 1.44 341.024ZM11.232 341.024C11.232 339.728 11.144 338.632 10.968 337.736C10.808 336.84 10.472 336.112 9.96 335.552C9.448 334.976 8.688 334.688 7.68 334.688C6.672 334.688 5.912 334.976 5.4 335.552C4.888 336.112 4.544 336.84 4.368 337.736C4.208 338.632 4.128 339.728 4.128 341.024C4.128 342.368 4.208 343.496 4.368 344.408C4.528 345.32 4.864 346.056 5.376 346.616C5.904 347.176 6.672 347.456 7.68 347.456C8.688 347.456 9.448 347.176 9.96 346.616C10.488 346.056 10.832 345.32 10.992 344.408C11.152 343.496 11.232 342.368 11.232 341.024ZM16.767 336.824C16.863 335.336 17.431 334.176 18.471 333.344C19.527 332.512 20.871 332.096 22.503 332.096C23.623 332.096 24.591 332.296 25.407 332.696C26.223 333.096 26.839 333.64 27.255 334.328C27.671 335.016 27.879 335.792 27.879 336.656C27.879 337.648 27.615 338.496 27.087 339.2C26.559 339.904 25.927 340.376 25.191 340.616V340.712C26.135 341 26.871 341.528 27.399 342.296C27.927 343.048 28.191 344.016 28.191 345.2C28.191 346.144 27.975 346.984 27.543 347.72C27.111 348.456 26.471 349.04 25.623 349.472C24.775 349.888 23.759 350.096 22.575 350.096C20.847 350.096 19.423 349.656 18.303 348.776C17.199 347.88 16.607 346.6 16.527 344.936H19.167C19.231 345.784 19.559 346.48 20.151 347.024C20.743 347.552 21.543 347.816 22.551 347.816C23.527 347.816 24.279 347.552 24.807 347.024C25.335 346.48 25.599 345.784 25.599 344.936C25.599 343.816 25.239 343.024 24.519 342.56C23.815 342.08 22.727 341.84 21.255 341.84H20.631V339.584H21.279C22.575 339.568 23.559 339.352 24.231 338.936C24.919 338.52 25.263 337.864 25.263 336.968C25.263 336.2 25.015 335.592 24.519 335.144C24.023 334.68 23.319 334.448 22.407 334.448C21.511 334.448 20.815 334.68 20.319 335.144C19.823 335.592 19.527 336.152 19.431 336.824H16.767Z" fill="black"/>
<g id="Ellipse 3" filter="url(#filter0_d_4_38)">
<circle cx="53.5" cy="341.5" r="13.5" fill="white" fill-opacity="0.5" shape-rendering="crispEdges"/>
</g>
</g>
<defs>
<filter id="filter0_d_4_38" x="36" y="328" width="35" height="35" filterUnits="userSpaceOnUse" color-interpolation-filters="sRGB">
<feFlood flood-opacity="0" result="BackgroundImageFix"/>
<feColorMatrix in="SourceAlpha" type="matrix" values="0 0 0 0 0 0 0 0 0 0 0 0 0 0 0 0 0 0 127 0" result="hardAlpha"/>
<feOffset dy="4"/>
<feGaussianBlur stdDeviation="2"/>
<feComposite in2="hardAlpha" operator="out"/>
<feColorMatrix type="matrix" values="0 0 0 0 0 0 0 0 0 0 0 0 0 0 0 0 0 0 0.25 0"/>
<feBlend mode="normal" in2="BackgroundImageFix" result="effect1_dropShadow_4_38"/>
<feBlend mode="normal" in="SourceGraphic" in2="effect1_dropShadow_4_38" result="shape"/>
</filter>
</defs>
</svg>
